<svg xmlns="http://www.w3.org/2000/svg" width="960.7122656249999" height="540.0"><line x1="30.0" x2="930.7122656249999" y1="45.0" y2="45.0" stroke="#1967d2" stroke-width="1" /><line x1="30.0" x2="930.7122656249999" y1="95.0" y2="95.0" stroke="#1967d2" stroke-width="1" /><line x1="30.0" x2="930.7122656249999" y1="145.0" y2="145.0" stroke="#1967d2" stroke-width="1" /><line x1="30.0" x2="930.7122656249999" y1="195.0" y2="195.0" stroke="#1967d2" stroke-width="1" /><line x1="30.0" x2="930.7122656249999" y1="245.0" y2="245.0" stroke="#1967d2" stroke-width="1" /><line x1="30.0" x2="930.7122656249999" y1="295.0" y2="295.0" stroke="#1967d2" stroke-width="1" /><line x1="30.0" x2="930.7122656249999" y1="345.0" y2="345.0" stroke="#1967d2" stroke-width="1" /><line x1="30.0" x2="930.7122656249999" y1="395.0" y2="395.0" stroke="#1967d2" stroke-width="1" /><line x1="30.0" x2="930.7122656249999" y1="445.0" y2="445.0" stroke="#1967d2" stroke-width="1" /><line x1="30.0" x2="930.7122656249999" y1="495.0" y2="495.0" stroke="#1967d2" stroke-width="1" /><line x1="443.91757812500003" x2="624.2681249999999" y1="5.0" y2="5.0" stroke="black" stroke-width="1" /><line x1="443.91757812500003" x2="624.2681249999999" y1="535.0" y2="535.0" stroke="black" stroke-width="1" /><line x1="253.56703125" x2="433.91757812500003" y1="5.0" y2="5.0" stroke="black" stroke-width="1" /><line x1="253.56703125" x2="433.91757812500003" y1="535.0" y2="535.0" stroke="black" stroke-width="1" /><line x1="120.0" x2="243.56703125" y1="5.0" y2="5.0" stroke="black" stroke-width="1" /><line x1="120.0" x2="243.56703125" y1="535.0" y2="535.0" stroke="black" stroke-width="1" /><line x1="148.3917578125" x2="148.3917578125" y1="45.0" y2="195.0" stroke="black" stroke-width="3" /><line x1="205.1752734375" x2="205.1752734375" y1="145.0" y2="295.0" stroke="black" stroke-width="3" /><line x1="281.9587890625" x2="281.9587890625" y1="45.0" y2="245.0" stroke="black" stroke-width="3" /><line x1="338.7423046875" x2="338.7423046875" y1="145.0" y2="345.0" stroke="black" stroke-width="3" /><line x1="395.5258203125" x2="395.5258203125" y1="195.0" y2="445.0" stroke="black" stroke-width="3" /><line x1="472.3093359375" x2="472.3093359375" y1="95.0" y2="245.0" stroke="black" stroke-width="3" /><line x1="529.0928515625001" x2="529.0928515625001" y1="145.0" y2="395.0" stroke="black" stroke-width="3" /><line x1="585.8763671875" x2="585.8763671875" y1="195.0" y2="495.0" stroke="black" stroke-width="3" /><line x1="672.6598828125" x2="672.6598828125" y1="245.0" y2="345.0" stroke="black" stroke-width="3" /><line x1="749.4433984374999" x2="749.4433984374999" y1="295.0" y2="345.0" stroke="black" stroke-width="3" /><line x1="887.97615234375" x2="887.97615234375" y1="45.0" y2="495.0" stroke="black" stroke-width="3" /><line x1="443.91757812500003" x2="443.91757812500003" y1="5.0" y2="15.0" stroke="black" stroke-width="3" /><line x1="624.2681249999999" x2="624.2681249999999" y1="5.0" y2="15.0" stroke="black" stroke-width="3" /><line x1="443.91757812500003" x2="443.91757812500003" y1="525.0" y2="535.0" stroke="black" stroke-width="3" /><line x1="624.2681249999999" x2="624.2681249999999" y1="525.0" y2="535.0" stroke="black" stroke-width="3" /><line x1="253.56703125" x2="253.56703125" y1="5.0" y2="15.0" stroke="black" stroke-width="3" /><line x1="433.91757812500003" x2="433.91757812500003" y1="5.0" y2="15.0" stroke="black" stroke-width="3" /><line x1="253.56703125" x2="253.56703125" y1="525.0" y2="535.0" stroke="black" stroke-width="3" /><line x1="433.91757812500003" x2="433.91757812500003" y1="525.0" y2="535.0" stroke="black" stroke-width="3" /><line x1="120.0" x2="120.0" y1="5.0" y2="15.0" stroke="black" stroke-width="3" /><line x1="243.56703125" x2="243.56703125" y1="5.0" y2="15.0" stroke="black" stroke-width="3" /><line x1="120.0" x2="120.0" y1="525.0" y2="535.0" stroke="black" stroke-width="3" /><line x1="243.56703125" x2="243.56703125" y1="525.0" y2="535.0" stroke="black" stroke-width="3" /><rect x="10.0" y="25.0" width="40" height="40" stroke="black" fill="white" stroke-width="0" /><text x="30.0" y="45.0" dominant-baseline="middle" text-anchor="middle" font-size="14px" font-family="Arial">0: </text><rect x="10.0" y="75.0" width="40" height="40" stroke="black" fill="white" stroke-width="0" /><text x="30.0" y="95.0" dominant-baseline="middle" text-anchor="middle" font-size="14px" font-family="Arial">1: </text><rect x="10.0" y="125.0" width="40" height="40" stroke="black" fill="white" stroke-width="0" /><text x="30.0" y="145.0" dominant-baseline="middle" text-anchor="middle" font-size="14px" font-family="Arial">2: </text><rect x="10.0" y="175.0" width="40" height="40" stroke="black" fill="white" stroke-width="0" /><text x="30.0" y="195.0" dominant-baseline="middle" text-anchor="middle" font-size="14px" font-family="Arial">3: </text><rect x="10.0" y="225.0" width="40" height="40" stroke="black" fill="white" stroke-width="0" /><text x="30.0" y="245.0" dominant-baseline="middle" text-anchor="middle" font-size="14px" font-family="Arial">4: </text><rect x="10.0" y="275.0" width="40" height="40" stroke="black" fill="white" stroke-width="0" /><text x="30.0" y="295.0" dominant-baseline="middle" text-anchor="middle" font-size="14px" font-family="Arial">5: </text><rect x="10.0" y="325.0" width="40" height="40" stroke="black" fill="white" stroke-width="0" /><text x="30.0" y="345.0" dominant-baseline="middle" text-anchor="middle" font-size="14px" font-family="Arial">6: </text><rect x="10.0" y="375.0" width="40" height="40" stroke="black" fill="white" stroke-width="0" /><text x="30.0" y="395.0" dominant-baseline="middle" text-anchor="middle" font-size="14px" font-family="Arial">7: </text><rect x="10.0" y="425.0" width="40" height="40" stroke="black" fill="white" stroke-width="0" /><text x="30.0" y="445.0" dominant-baseline="middle" text-anchor="middle" font-size="14px" font-family="Arial">8: </text><rect x="10.0" y="475.0" width="40" height="40" stroke="black" fill="white" stroke-width="0" /><text x="30.0" y="495.0" dominant-baseline="middle" text-anchor="middle" font-size="14px" font-family="Arial">9: </text><rect x="70.0" y="25.0" width="40" height="40" stroke="black" fill="white" stroke-width="1" /><text x="90.0" y="45.0" dominant-baseline="middle" text-anchor="middle" font-size="18px" font-family="Arial">H</text><rect x="70.0" y="75.0" width="40" height="40" stroke="black" fill="white" stroke-width="1" /><text x="90.0" y="95.0" dominant-baseline="middle" text-anchor="middle" font-size="18px" font-family="Arial">H</text><rect x="70.0" y="125.0" width="40" height="40" stroke="black" fill="white" stroke-width="1" /><text x="90.0" y="145.0" dominant-baseline="middle" text-anchor="middle" font-size="18px" font-family="Arial">H</text><rect x="70.0" y="175.0" width="40" height="40" stroke="black" fill="white" stroke-width="1" /><text x="90.0" y="195.0" dominant-baseline="middle" text-anchor="middle" font-size="18px" font-family="Arial">H</text><rect x="70.0" y="225.0" width="40" height="40" stroke="black" fill="white" stroke-width="1" /><text x="90.0" y="245.0" dominant-baseline="middle" text-anchor="middle" font-size="18px" font-family="Arial">H</text><rect x="70.0" y="275.0" width="40" height="40" stroke="black" fill="white" stroke-width="1" /><text x="90.0" y="295.0" dominant-baseline="middle" text-anchor="middle" font-size="18px" font-family="Arial">H</text><rect x="70.0" y="325.0" width="40" height="40" stroke="black" fill="white" stroke-width="1" /><text x="90.0" y="345.0" dominant-baseline="middle" text-anchor="middle" font-size="18px" font-family="Arial">H</text><rect x="70.0" y="375.0" width="40" height="40" stroke="black" fill="white" stroke-width="1" /><text x="90.0" y="395.0" dominant-baseline="middle" text-anchor="middle" font-size="18px" font-family="Arial">H</text><rect x="70.0" y="425.0" width="40" height="40" stroke="black" fill="white" stroke-width="1" /><text x="90.0" y="445.0" dominant-baseline="middle" text-anchor="middle" font-size="18px" font-family="Arial">H</text><rect x="70.0" y="475.0" width="40" height="40" stroke="black" fill="white" stroke-width="1" /><text x="90.0" y="495.0" dominant-baseline="middle" text-anchor="middle" font-size="18px" font-family="Arial">H</text><rect x="120.0" y="25.0" width="56.783515625" height="40" stroke="black" fill="white" stroke-width="1" /><text x="148.3917578125" y="45.0" dominant-baseline="middle" text-anchor="middle" font-size="14px" font-family="Arial">ZZ</text><rect x="120.0" y="175.0" width="56.783515625" height="40" stroke="black" fill="white" stroke-width="1" /><text x="148.3917578125" y="195.0" dominant-baseline="middle" text-anchor="middle" font-size="14px" font-family="Arial">ZZ^g1</text><rect x="176.783515625" y="125.0" width="56.783515625" height="40" stroke="black" fill="white" stroke-width="1" /><text x="205.1752734375" y="145.0" dominant-baseline="middle" text-anchor="middle" font-size="14px" font-family="Arial">ZZ</text><rect x="176.783515625" y="275.0" width="56.783515625" height="40" stroke="black" fill="white" stroke-width="1" /><text x="205.1752734375" y="295.0" dominant-baseline="middle" text-anchor="middle" font-size="14px" font-family="Arial">ZZ^g1</text><rect x="253.56703124999999" y="25.0" width="56.783515625" height="40" stroke="black" fill="white" stroke-width="1" /><text x="281.9587890625" y="45.0" dominant-baseline="middle" text-anchor="middle" font-size="14px" font-family="Arial">ZZ</text><rect x="253.56703124999999" y="225.0" width="56.783515625" height="40" stroke="black" fill="white" stroke-width="1" /><text x="281.9587890625" y="245.0" dominant-baseline="middle" text-anchor="middle" font-size="14px" font-family="Arial">ZZ^g1</text><rect x="310.350546875" y="125.0" width="56.783515625" height="40" stroke="black" fill="white" stroke-width="1" /><text x="338.7423046875" y="145.0" dominant-baseline="middle" text-anchor="middle" font-size="14px" font-family="Arial">ZZ</text><rect x="310.350546875" y="325.0" width="56.783515625" height="40" stroke="black" fill="white" stroke-width="1" /><text x="338.7423046875" y="345.0" dominant-baseline="middle" text-anchor="middle" font-size="14px" font-family="Arial">ZZ^g1</text><rect x="367.1340625" y="175.0" width="56.783515625" height="40" stroke="black" fill="white" stroke-width="1" /><text x="395.5258203125" y="195.0" dominant-baseline="middle" text-anchor="middle" font-size="14px" font-family="Arial">ZZ</text><rect x="367.1340625" y="425.0" width="56.783515625" height="40" stroke="black" fill="white" stroke-width="1" /><text x="395.5258203125" y="445.0" dominant-baseline="middle" text-anchor="middle" font-size="14px" font-family="Arial">ZZ^g1</text><rect x="443.91757812500003" y="75.0" width="56.783515625" height="40" stroke="black" fill="white" stroke-width="1" /><text x="472.3093359375" y="95.0" dominant-baseline="middle" text-anchor="middle" font-size="14px" font-family="Arial">ZZ</text><rect x="443.91757812500003" y="225.0" width="56.783515625" height="40" stroke="black" fill="white" stroke-width="1" /><text x="472.3093359375" y="245.0" dominant-baseline="middle" text-anchor="middle" font-size="14px" font-family="Arial">ZZ^g1</text><rect x="500.7010937500001" y="125.0" width="56.783515625" height="40" stroke="black" fill="white" stroke-width="1" /><text x="529.0928515625001" y="145.0" dominant-baseline="middle" text-anchor="middle" font-size="14px" font-family="Arial">ZZ</text><rect x="500.7010937500001" y="375.0" width="56.783515625" height="40" stroke="black" fill="white" stroke-width="1" /><text x="529.0928515625001" y="395.0" dominant-baseline="middle" text-anchor="middle" font-size="14px" font-family="Arial">ZZ^g1</text><rect x="557.484609375" y="175.0" width="56.783515625" height="40" stroke="black" fill="white" stroke-width="1" /><text x="585.8763671875" y="195.0" dominant-baseline="middle" text-anchor="middle" font-size="14px" font-family="Arial">ZZ</text><rect x="557.484609375" y="475.0" width="56.783515625" height="40" stroke="black" fill="white" stroke-width="1" /><text x="585.8763671875" y="495.0" dominant-baseline="middle" text-anchor="middle" font-size="14px" font-family="Arial">ZZ^g1</text><rect x="443.91757812500003" y="25.0" width="56.783515625" height="40" stroke="black" fill="white" stroke-width="1" /><text x="472.3093359375" y="45.0" dominant-baseline="middle" text-anchor="middle" font-size="14px" font-family="Arial">X^b1</text><rect x="443.91757812500003" y="425.0" width="56.783515625" height="40" stroke="black" fill="white" stroke-width="1" /><text x="472.3093359375" y="445.0" dominant-baseline="middle" text-anchor="middle" font-size="14px" font-family="Arial">X^b1</text><rect x="644.2681249999999" y="225.0" width="56.78351562500001" height="40" stroke="black" fill="white" stroke-width="1" /><text x="672.6598828125" y="245.0" dominant-baseline="middle" text-anchor="middle" font-size="14px" font-family="Arial">ZZ</text><rect x="644.2681249999999" y="325.0" width="56.78351562500001" height="40" stroke="black" fill="white" stroke-width="1" /><text x="672.6598828125" y="345.0" dominant-baseline="middle" text-anchor="middle" font-size="14px" font-family="Arial">ZZ^g1</text><rect x="644.2681249999999" y="75.0" width="56.78351562500001" height="40" stroke="black" fill="white" stroke-width="1" /><text x="672.6598828125" y="95.0" dominant-baseline="middle" text-anchor="middle" font-size="14px" font-family="Arial">X^b1</text><rect x="644.2681249999999" y="125.0" width="56.78351562500001" height="40" stroke="black" fill="white" stroke-width="1" /><text x="672.6598828125" y="145.0" dominant-baseline="middle" text-anchor="middle" font-size="14px" font-family="Arial">X^b1</text><rect x="644.2681249999999" y="175.0" width="56.78351562500001" height="40" stroke="black" fill="white" stroke-width="1" /><text x="672.6598828125" y="195.0" dominant-baseline="middle" text-anchor="middle" font-size="14px" font-family="Arial">X^b1</text><rect x="644.2681249999999" y="375.0" width="56.78351562500001" height="40" stroke="black" fill="white" stroke-width="1" /><text x="672.6598828125" y="395.0" dominant-baseline="middle" text-anchor="middle" font-size="14px" font-family="Arial">X^b1</text><rect x="644.2681249999999" y="475.0" width="56.78351562500001" height="40" stroke="black" fill="white" stroke-width="1" /><text x="672.6598828125" y="495.0" dominant-baseline="middle" text-anchor="middle" font-size="14px" font-family="Arial">X^b1</text><rect x="721.0516406249999" y="275.0" width="56.78351562500001" height="40" stroke="black" fill="white" stroke-width="1" /><text x="749.4433984374999" y="295.0" dominant-baseline="middle" text-anchor="middle" font-size="14px" font-family="Arial">ZZ</text><rect x="721.0516406249999" y="325.0" width="56.78351562500001" height="40" stroke="black" fill="white" stroke-width="1" /><text x="749.4433984374999" y="345.0" dominant-baseline="middle" text-anchor="middle" font-size="14px" font-family="Arial">ZZ^g1</text><rect x="721.0516406249999" y="225.0" width="56.78351562500001" height="40" stroke="black" fill="white" stroke-width="1" /><text x="749.4433984374999" y="245.0" dominant-baseline="middle" text-anchor="middle" font-size="14px" font-family="Arial">X^b1</text><rect x="797.83515625" y="275.0" width="47.404882812500006" height="40" stroke="black" fill="white" stroke-width="1" /><text x="821.53759765625" y="295.0" dominant-baseline="middle" text-anchor="middle" font-size="14px" font-family="Arial">X^b1</text><rect x="797.83515625" y="325.0" width="47.404882812500006" height="40" stroke="black" fill="white" stroke-width="1" /><text x="821.53759765625" y="345.0" dominant-baseline="middle" text-anchor="middle" font-size="14px" font-family="Arial">X^b1</text><rect x="865.2400390624999" y="25.0" width="45.4722265625" height="40" stroke="black" fill="white" stroke-width="1" /><text x="887.97615234375" y="45.0" dominant-baseline="middle" text-anchor="middle" font-size="14px" font-family="Arial">M('z')</text><rect x="865.2400390624999" y="75.0" width="45.4722265625" height="40" stroke="black" fill="white" stroke-width="1" /><text x="887.97615234375" y="95.0" dominant-baseline="middle" text-anchor="middle" font-size="18px" font-family="Arial">M</text><rect x="865.2400390624999" y="125.0" width="45.4722265625" height="40" stroke="black" fill="white" stroke-width="1" /><text x="887.97615234375" y="145.0" dominant-baseline="middle" text-anchor="middle" font-size="18px" font-family="Arial">M</text><rect x="865.2400390624999" y="175.0" width="45.4722265625" height="40" stroke="black" fill="white" stroke-width="1" /><text x="887.97615234375" y="195.0" dominant-baseline="middle" text-anchor="middle" font-size="18px" font-family="Arial">M</text><rect x="865.2400390624999" y="225.0" width="45.4722265625" height="40" stroke="black" fill="white" stroke-width="1" /><text x="887.97615234375" y="245.0" dominant-baseline="middle" text-anchor="middle" font-size="18px" font-family="Arial">M</text><rect x="865.2400390624999" y="275.0" width="45.4722265625" height="40" stroke="black" fill="white" stroke-width="1" /><text x="887.97615234375" y="295.0" dominant-baseline="middle" text-anchor="middle" font-size="18px" font-family="Arial">M</text><rect x="865.2400390624999" y="325.0" width="45.4722265625" height="40" stroke="black" fill="white" stroke-width="1" /><text x="887.97615234375" y="345.0" dominant-baseline="middle" text-anchor="middle" font-size="18px" font-family="Arial">M</text><rect x="865.2400390624999" y="375.0" width="45.4722265625" height="40" stroke="black" fill="white" stroke-width="1" /><text x="887.97615234375" y="395.0" dominant-baseline="middle" text-anchor="middle" font-size="18px" font-family="Arial">M</text><rect x="865.2400390624999" y="425.0" width="45.4722265625" height="40" stroke="black" fill="white" stroke-width="1" /><text x="887.97615234375" y="445.0" dominant-baseline="middle" text-anchor="middle" font-size="18px" font-family="Arial">M</text><rect x="865.2400390624999" y="475.0" width="45.4722265625" height="40" stroke="black" fill="white" stroke-width="1" /><text x="887.97615234375" y="495.0" dominant-baseline="middle" text-anchor="middle" font-size="18px" font-family="Arial">M</text></svg>